# xmcd CD database file
#
# Track frame offsets:
#	150
#	12173
#	26982
#	39356
#	53777
#	67254
#	95493
#	110949
#	127665
#	145873
#	162130
#	178205
#	191950
#	204974
#	231638
#
# Disc length: 3273 seconds
#
# Revision: 0
# Processed by: cddbd v1.5.1PL2 Copyright (c) Steve Scherf et al.
# Submitted via: Feurio! 1.68 - http://www.feurio.com
#
DISCID=dd0cc70f
DTITLE=J.J. Cale - London 1994
DYEAR=1900
DGENRE=
TTITLE0=River Boat Song
TTITLE1=Ride Me High
TTITLE2=The Old Man And Me
TTITLE3=New Orleans
TTITLE4=Don't Cry, Sister
TTITLE5=Call Me The Breeze
TTITLE6=Lies
TTITLE7=Black Cat
TTITLE8=I Feel So Bad
TTITLE9=Durango Instrumental
TTITLE10=Closer To You
TTITLE11=Nowhere To Run
TTITLE12=Taking Care Of Business
TTITLE13=After Midnight
TTITLE14=No Time
EXTD=
EXTT0=
EXTT1=
EXTT2=
EXTT3=
EXTT4=
EXTT5=
EXTT6=
EXTT7=
EXTT8=
EXTT9=
EXTT10=
EXTT11=
EXTT12=
EXTT13=
EXTT14=
PLAYORDER=
